<svg xmlns="http://www.w3.org/2000/svg" viewBox="0 0 400 300" width="400" height="300">
<rect width="400" height="300" fill="#1b1f3b"/>
<g fill="#ffffff">
<circle cx="60" cy="60" r="3"/>
<circle cx="120" cy="40" r="2"/>
<circle cx="320" cy="70" r="3"/>
<circle cx="360" cy="140" r="2"/>
<circle cx="80" cy="200" r="2"/>
<circle cx="300" cy="220" r="3"/>
<circle cx="200" cy="36" r="2"/>
</g>
<path d="M200 60 C232 90 244 140 244 180 L156 180 C156 140 168 90 200 60 Z" fill="#e6e9ef"/>
<path d="M200 60 C216 76 224 110 224 140 L176 140 C176 110 184 76 200 60 Z" fill="#e23b3b"/>
<circle cx="200" cy="128" r="18" fill="#4cc9f0" stroke="#1b1f3b" stroke-width="4"/>
<polygon points="156,180 128,220 156,210" fill="#ff9f43"/>
<polygon points="244,180 272,220 244,210" fill="#ff9f43"/>
<rect x="176" y="180" width="48" height="16" fill="#9aa0a6"/>
<polygon points="184,196 216,196 208,250 192,250" fill="#ffd23f"/>
<polygon points="192,196 208,196 202,230 198,230" fill="#ff6f43"/>
</svg>
