<svg xmlns="http://www.w3.org/2000/svg" viewBox="0 0 400 300" width="400" height="300">
<g stroke="#333" stroke-width="3" stroke-linejoin="round" stroke-linecap="round">
<rect class="region" x="0" y="0" width="400" height="300" fill="#ffffff"/>
<rect class="region" x="0" y="246" width="400" height="54" fill="#ffffff"/>
<rect class="region" x="28" y="150" width="252" height="78" rx="8" fill="#ffffff"/>
<rect class="region" x="276" y="116" width="92" height="112" rx="10" fill="#ffffff"/>
<rect class="region" x="292" y="132" width="60" height="42" rx="6" fill="#ffffff"/>
<polygon class="region" points="58,148 238,148 250,126 70,126" fill="#ffffff"/>
<circle class="region" cx="322" cy="104" r="11" fill="#ffffff"/>
<circle class="region" cx="104" cy="236" r="30" fill="#ffffff"/>
<circle class="region" cx="312" cy="236" r="30" fill="#ffffff"/>
<circle class="region" cx="104" cy="236" r="11" fill="#ffffff"/>
<circle class="region" cx="312" cy="236" r="11" fill="#ffffff"/>
<line x1="86" y1="132" x2="232" y2="132" fill="none"/>
<line x1="120" y1="126" x2="120" y2="148" fill="none"/>
<line x1="160" y1="126" x2="160" y2="148" fill="none"/>
<line x1="200" y1="126" x2="200" y2="148" fill="none"/>
</g>
</svg>
