<svg xmlns="http://www.w3.org/2000/svg" viewBox="0 0 800 600">
  <rect x="0" y="0" width="800" height="600" fill="#aee3ef"/>
  <rect x="0" y="0" width="800" height="600" fill="#5fc2d6" opacity="0.35"/>
  <path d="M0 500 Q200 460 400 500 T800 500 V600 H0 Z" fill="#f2dca0"/>
  <circle cx="120" cy="90" r="22" fill="#ffffff" opacity="0.4"/>
  <circle cx="170" cy="120" r="14" fill="#ffffff" opacity="0.4"/>
  <path d="M700 600 Q690 500 710 440 Q730 500 720 600 Z" fill="#5aa86b"/>
  <path d="M740 600 Q732 520 748 470 Q766 520 758 600 Z" fill="#4f9a60"/>

  <g class="find" data-name="Fish" transform="translate(220 220)">
    <ellipse cx="0" cy="0" rx="44" ry="30" fill="#ff9f1c"/>
    <polygon points="38,0 78,-26 78,26" fill="#ff7a1c"/>
    <circle cx="-22" cy="-8" r="6" fill="#2b2b2b"/>
    <path d="M-6 6 Q6 18 22 6" stroke="#b5601a" stroke-width="4" fill="none"/>
  </g>

  <g class="find" data-name="Crab" transform="translate(360 470)">
    <ellipse cx="0" cy="0" rx="40" ry="26" fill="#e2533b"/>
    <circle cx="-14" cy="-8" r="6" fill="#fff"/><circle cx="-14" cy="-8" r="3" fill="#2b2b2b"/>
    <circle cx="14" cy="-8" r="6" fill="#fff"/><circle cx="14" cy="-8" r="3" fill="#2b2b2b"/>
    <path d="M-40 0 Q-66 -14 -56 -30" stroke="#e2533b" stroke-width="8" fill="none"/>
    <path d="M40 0 Q66 -14 56 -30" stroke="#e2533b" stroke-width="8" fill="none"/>
    <path d="M-34 18 L-52 30 M-20 24 L-32 40 M34 18 L52 30 M20 24 L32 40" stroke="#e2533b" stroke-width="6"/>
  </g>

  <g class="find" data-name="Starfish" transform="translate(560 510)">
    <polygon points="0,-34 10,-10 36,-10 15,7 23,32 0,17 -23,32 -15,7 -36,-10 -10,-10" fill="#ffb74d"/>
    <circle cx="0" cy="-2" r="4" fill="#e08e2a"/>
    <circle cx="-10" cy="6" r="3" fill="#e08e2a"/>
    <circle cx="10" cy="6" r="3" fill="#e08e2a"/>
  </g>

  <g class="find" data-name="Octopus" transform="translate(150 420)">
    <circle cx="0" cy="-10" r="34" fill="#c06bd6"/>
    <circle cx="-12" cy="-14" r="5" fill="#fff"/><circle cx="-12" cy="-14" r="2.5" fill="#2b2b2b"/>
    <circle cx="12" cy="-14" r="5" fill="#fff"/><circle cx="12" cy="-14" r="2.5" fill="#2b2b2b"/>
    <path d="M-30 18 Q-40 44 -30 56 M-14 24 Q-18 50 -8 60 M2 26 Q2 52 14 58 M22 20 Q34 44 30 58" stroke="#c06bd6" stroke-width="10" fill="none" stroke-linecap="round"/>
  </g>

  <g class="find" data-name="Seahorse" transform="translate(640 250)">
    <path d="M0 -40 Q26 -34 22 -8 Q18 18 -4 26 Q-24 32 -18 52" fill="none" stroke="#5fc26b" stroke-width="18" stroke-linecap="round"/>
    <circle cx="2" cy="-36" r="12" fill="#5fc26b"/>
    <polygon points="12,-44 28,-44 14,-32" fill="#5fc26b"/>
    <circle cx="6" cy="-38" r="3" fill="#2b2b2b"/>
  </g>

  <g class="find" data-name="Shell" transform="translate(450 520)">
    <path d="M0 18 L-34 -6 A34 30 0 0 1 34 -6 Z" fill="#ff8fb1"/>
    <path d="M0 18 V-18 M-12 12 L-20 -10 M12 12 L20 -10" stroke="#d75f86" stroke-width="4"/>
  </g>

  <g class="find" data-name="Jellyfish" transform="translate(380 170)">
    <path d="M-32 0 A32 30 0 0 1 32 0 Z" fill="#ff8fc8" opacity="0.9"/>
    <path d="M-24 2 Q-26 30 -18 40 M-8 4 Q-10 34 -2 44 M8 4 Q8 34 16 42 M24 2 Q28 28 22 40" stroke="#ff8fc8" stroke-width="6" fill="none" stroke-linecap="round"/>
    <circle cx="-10" cy="-8" r="4" fill="#fff"/>
    <circle cx="10" cy="-8" r="4" fill="#fff"/>
  </g>
</svg>
