<svg xmlns="http://www.w3.org/2000/svg" viewBox="0 0 800 600">
  <rect x="0" y="0" width="800" height="600" fill="#d9eefb"/>
  <rect x="0" y="430" width="800" height="170" fill="#9fb0a6"/>
  <rect x="0" y="500" width="800" height="20" fill="#fff" opacity="0.7"/>
  <rect x="60" y="505" width="60" height="10" fill="#9fb0a6"/>
  <rect x="220" y="505" width="60" height="10" fill="#9fb0a6"/>
  <rect x="380" y="505" width="60" height="10" fill="#9fb0a6"/>
  <rect x="540" y="505" width="60" height="10" fill="#9fb0a6"/>
  <rect x="700" y="505" width="60" height="10" fill="#9fb0a6"/>
  <circle cx="690" cy="90" r="48" fill="#ffe08a"/>

  <g class="find" data-name="House" transform="translate(140 330)">
    <rect x="-50" y="-30" width="100" height="90" fill="#ffd79a"/>
    <polygon points="-62,-30 0,-78 62,-30" fill="#e06b4f"/>
    <rect x="-16" y="14" width="32" height="46" fill="#8a5a3b"/>
    <rect x="-40" y="-14" width="22" height="22" fill="#bfe6ff"/>
    <rect x="18" y="-14" width="22" height="22" fill="#bfe6ff"/>
  </g>

  <g class="find" data-name="Tree" transform="translate(420 320)">
    <rect x="-10" y="20" width="20" height="60" fill="#8a5a3b"/>
    <circle cx="0" cy="-10" r="44" fill="#6cb257"/>
    <circle cx="-30" cy="6" r="28" fill="#5aa049"/>
    <circle cx="30" cy="6" r="28" fill="#5aa049"/>
  </g>

  <g class="find" data-name="Car" transform="translate(300 470)">
    <rect x="-56" y="-14" width="112" height="34" rx="10" fill="#e23b3b"/>
    <path d="M-34 -14 L-20 -38 L24 -38 L40 -14 Z" fill="#ef6a6a"/>
    <rect x="-16" y="-34" width="26" height="20" fill="#bfe6ff"/>
    <circle cx="-30" cy="22" r="14" fill="#2b2b2b"/><circle cx="-30" cy="22" r="6" fill="#9aa0a6"/>
    <circle cx="32" cy="22" r="14" fill="#2b2b2b"/><circle cx="32" cy="22" r="6" fill="#9aa0a6"/>
  </g>

  <g class="find" data-name="Bus" transform="translate(620 460)">
    <rect x="-64" y="-30" width="128" height="56" rx="10" fill="#ffb300"/>
    <rect x="-52" y="-20" width="22" height="20" fill="#bfe6ff"/>
    <rect x="-22" y="-20" width="22" height="20" fill="#bfe6ff"/>
    <rect x="8" y="-20" width="22" height="20" fill="#bfe6ff"/>
    <rect x="38" y="-20" width="20" height="20" fill="#bfe6ff"/>
    <circle cx="-36" cy="30" r="13" fill="#2b2b2b"/>
    <circle cx="36" cy="30" r="13" fill="#2b2b2b"/>
  </g>

  <g class="find" data-name="Dog" transform="translate(180 480)">
    <ellipse cx="0" cy="6" rx="34" ry="20" fill="#b07a45"/>
    <circle cx="30" cy="-8" r="18" fill="#b07a45"/>
    <ellipse cx="40" cy="-2" rx="10" ry="7" fill="#7a5230"/>
    <path d="M22 -22 Q14 -34 30 -30 Z" fill="#7a5230"/>
    <circle cx="34" cy="-12" r="3" fill="#2b2b2b"/>
    <rect x="-34" y="20" width="8" height="18" fill="#b07a45"/>
    <rect x="22" y="20" width="8" height="18" fill="#b07a45"/>
    <path d="M-34 0 Q-52 -6 -46 -20" stroke="#b07a45" stroke-width="10" fill="none" stroke-linecap="round"/>
  </g>

  <g class="find" data-name="Cat" transform="translate(520 490)">
    <ellipse cx="0" cy="6" rx="28" ry="18" fill="#9aa0a6"/>
    <circle cx="22" cy="-8" r="15" fill="#9aa0a6"/>
    <polygon points="12,-18 16,-32 24,-20" fill="#9aa0a6"/>
    <polygon points="30,-20 36,-32 38,-18" fill="#9aa0a6"/>
    <circle cx="18" cy="-10" r="3" fill="#2b2b2b"/>
    <circle cx="28" cy="-10" r="3" fill="#2b2b2b"/>
    <path d="M-28 2 Q-46 -2 -42 -18" stroke="#9aa0a6" stroke-width="9" fill="none" stroke-linecap="round"/>
  </g>

  <g class="find" data-name="Ball" transform="translate(400 500)">
    <circle cx="0" cy="0" r="24" fill="#4361ee"/>
    <path d="M-24 0 H24 M0 -24 V24" stroke="#fff" stroke-width="4"/>
    <circle cx="0" cy="0" r="9" fill="none" stroke="#fff" stroke-width="4"/>
  </g>

  <g class="find" data-name="Kite" transform="translate(560 170)">
    <polygon points="0,-40 28,0 0,40 -28,0" fill="#ff5d8f"/>
    <path d="M0 -40 V40 M-28 0 H28" stroke="#fff" stroke-width="3"/>
    <path d="M0 40 q10 16 -4 26 q14 8 4 24" stroke="#5b4636" stroke-width="3" fill="none"/>
  </g>
</svg>
